<svg t="1688351966944" class="icon" viewBox="0 0 1026 1024" version="1.1" xmlns="http://www.w3.org/2000/svg" p-id="19852" width="200" height="200"><path d="M213.2928 360.86784l13.05856 8.15232 13.05728-8.15232c14.1632-8.80512 138.1248-88.60544 138.1248-178.07872 0.00128-48.48512-39.456-87.93472-87.89632-87.93472-24.67584 0-47.11552 10.39744-63.1616 27.01824-16.02176-16.63872-38.44224-27.01824-63.15264-27.01824-48.48512 0-87.94368 39.4496-87.94368 87.93472C75.3792 272.1728 199.17184 352.04352 213.2928 360.86784z" fill="#d4237a" p-id="19853"></path><path d="M1019.12832 310.52544l-94.8736-121.91872c0-0.01792-0.08832-0.03584-0.08832-0.03584l-0.07936-0.14208c-0.09728-0.1408-0.16768-0.17664-0.18688-0.28288C877.0688 127.31904 792.8832 87.95904 709.20192 87.95904c-95.88224 0-181.95072 50.02368-242.36416 140.76928-9.48608 14.35776-18.23872 28.6976-27.6992 41.99552-124.3072 173.5168-192.78976 233.8304-243.43296 255.5264 15.19744 19.9104 34.26688 43.232 38.59072 47.53024 50.30656 48.94464 114.272 75.92704 180.08448 75.92704 112.31872 0 213.408-77.19936 257.5232-196.67968 4.07808-10.98112 16.288-16.5504 27.23968-12.53632 10.97088 4.04992 16.60416 16.23296 12.54528 27.23072-50.34112 136.2944-167.03488 224.38784-297.30816 224.38784-76.9344 0-151.39456-31.2448-209.65888-87.97056-5.888-5.71008-35.3024-41.34144-53.2672-66.46912-0.24704 0.0192-0.52224 0.08704-0.76928 0.10624-3.28832 0.33792-6.86976 0.42368-10.68032 0.42368-22.54464 0-53.99296-4.93312-81.10848-4.93312-25.75488 0-47.48544 4.52608-53.69216 22.06592-3.33312 9.39136-5.96864 18.99136-1.75104 27.95648 4.3584 9.23008 100.45312 206.83008 366.62528 243.15008l9.50528 0.76288 54.40128 117.58592c3.58144 7.72864 11.23712 12.288 19.25632 12.288 2.97856 0 5.99424-0.61696 8.87808-1.98144 10.61888-4.89728 15.26016-17.50528 10.33472-28.1152l-44.36992-95.88864 7.70304 0.61696c6.7904 0.20992 13.56288 0.4416 20.57344 0.4416 20.60032 0 40.4928-1.57312 59.58016-4.5248l6.91328-1.63072 54.95936 118.79552c3.5904 7.72864 11.24608 12.288 19.25632 12.288 2.97984 0 6.0032-0.61696 8.88448-1.98144 10.61888-4.89728 15.26016-17.50528 10.32576-28.1152l-51.32032-110.9248 8.2176-1.94048C756.94464 754.6176 862.976 558.3424 906.61632 382.58176l97.33248-26.11712c9.3184-2.51008 16.81536-9.53088 19.87456-18.85056C1026.848 328.38528 1025.10464 318.20032 1019.12832 310.52544zM717.408 358.09152c-25.5424 0-46.24896-20.70528-46.24896-46.24 0-25.53344 20.70656-46.25664 46.24896-46.25664 25.5232 0 46.24768 20.7232 46.24768 46.25664C763.6544 337.38624 742.9312 358.09152 717.408 358.09152z" fill="#d4237a" p-id="19854"></path></svg>