<svg t="1688351699849" class="icon" viewBox="0 0 1024 1024" version="1.1" xmlns="http://www.w3.org/2000/svg" p-id="7295" width="200" height="200"><path d="M512 486.4c134.4 0 243.2-108.8 243.2-243.2S646.4 0 512 0 268.8 108.8 268.8 243.2s108.8 243.2 243.2 243.2z m0-435.2c106.24 0 192 85.76 192 192s-85.76 192-192 192-192-85.76-192-192S405.76 51.2 512 51.2zM768 512c-84.48 0-158.72 40.96-204.8 103.68-16.64 0-33.28-1.28-51.2-1.28C176.64 614.4 0 747.52 0 998.4c0 14.08 11.52 25.6 25.6 25.6h742.4c140.8 0 256-115.2 256-256s-115.2-256-256-256zM52.48 972.8C64 769.28 218.88 665.6 512 665.6h21.76a253.44 253.44 0 0 0-21.76 102.4c0 83.2 40.96 157.44 103.68 204.8h-563.2zM768 972.8c-112.64 0-204.8-92.16-204.8-204.8 0-40.96 11.52-78.08 33.28-110.08 1.28-1.28 2.56-2.56 2.56-5.12 37.12-53.76 98.56-89.6 168.96-89.6 112.64 0 204.8 92.16 204.8 204.8s-92.16 204.8-204.8 204.8z" fill="#2c2c2c" p-id="7296"></path><path d="M870.4 742.4h-76.8v-76.8c0-14.08-11.52-25.6-25.6-25.6s-25.6 11.52-25.6 25.6v76.8h-76.8c-14.08 0-25.6 11.52-25.6 25.6s11.52 25.6 25.6 25.6h76.8v76.8c0 14.08 11.52 25.6 25.6 25.6s25.6-11.52 25.6-25.6v-76.8h76.8c14.08 0 25.6-11.52 25.6-25.6s-11.52-25.6-25.6-25.6z" fill="#2c2c2c" p-id="7297"></path></svg>